<?xml version="1.0" encoding="UTF-8"?>
<svg width="17.394" height="24" version="1.1" viewBox="0 0 17.394 24" xmlns="http://www.w3.org/2000/svg" xmlns:cc="http://creativecommons.org/ns#" xmlns:dc="http://purl.org/dc/elements/1.1/" xmlns:rdf="http://www.w3.org/1999/02/22-rdf-syntax-ns#">
 <metadata>
  <rdf:RDF>
   <cc:Work rdf:about="">
    <dc:format>image/svg+xml</dc:format>
    <dc:type rdf:resource="http://purl.org/dc/dcmitype/StillImage"/>
    <dc:title/>
   </cc:Work>
  </rdf:RDF>
 </metadata>
 <g>
  <g transform="translate(2.8552e-5 .357)" fill="#fff">
   <path d="m2.272 17.047a1.136 1.136 0 0 1-1.136 1.136 1.136 1.136 0 0 1-1.136-1.136 1.136 1.136 0 0 1 1.136-1.136 1.136 1.136 0 0 1 1.136 1.136z"/>
   <path d="m6.052 19.315a1.136 1.136 0 0 1-1.136 1.136 1.136 1.136 0 0 1-1.136-1.136 1.136 1.136 0 0 1 1.136-1.136 1.136 1.136 0 0 1 1.136 1.136z"/>
   <path d="m13.612 19.315a1.136 1.136 0 0 1-1.136 1.136 1.136 1.136 0 0 1-1.136-1.136 1.136 1.136 0 0 1 1.136-1.136 1.136 1.136 0 0 1 1.136 1.136z"/>
   <path d="m17.392 17.047a1.136 1.136 0 0 1-1.136 1.136 1.136 1.136 0 0 1-1.136-1.136 1.136 1.136 0 0 1 1.136-1.136 1.136 1.136 0 0 1 1.136 1.136z"/>
   <path d="m1.136 13.643a1.152 1.152 0 0 0 1.132-1.16v-11.28a1.148 1.148 0 0 0-1.132-1.16 1.152 1.152 0 0 0-1.136 1.16v11.292c2e-3 0.629 0.508 1.14 1.136 1.148zm3.78 2.277a1.148 1.148 0 0 0 1.132-1.16v-11.294a1.136 1.136 0 1 0-2.268 0v11.294a1.152 1.152 0 0 0 1.136 1.16zm3.78 2.271a1.152 1.152 0 0 0 1.136-1.16v-11.291a1.136 1.136 0 1 0-2.272 0v11.292a1.152 1.152 0 0 0 1.136 1.16z"/>
   <path d="m9.832 21.587a1.136 1.136 0 0 1-1.136 1.136 1.136 1.136 0 0 1-1.136-1.136 1.136 1.136 0 0 1 1.136-1.136 1.136 1.136 0 0 1 1.136 1.136z"/>
   <path d="m12.476 15.92a1.152 1.152 0 0 0 1.124-1.16v-11.294a1.136 1.136 0 1 0-2.268 0v11.294a1.148 1.148 0 0 0 1.144 1.16zm3.78-2.277a1.152 1.152 0 0 0 1.136-1.16v-11.28a1.136 1.136 0 1 0-2.268 0v11.292a1.152 1.152 0 0 0 1.132 1.148z"/>
  </g>
  <path d="m94.016 16.864a1.684 1.684 0 0 1-1.684 1.684 1.684 1.684 0 0 1-1.684-1.684 1.684 1.684 0 0 1 1.684-1.684 1.684 1.684 0 0 1 1.684 1.684z" fill="#ff34ff"/>
  <path d="m101.5 5.164a8.4 8.4 0 0 1 2.684 0.368 4.176 4.176 0 0 1 1.716 1.048c0.434 0.468 0.745 1.037 0.904 1.656 0.188 0.706 0.282 1.433 0.28 2.164v7.56c-0.52 0.112-1.244 0.248-2.172 0.4a20.588 20.588 0 0 1-3.36 0.232 10.576 10.576 0 0 1-2.256-0.22 4.8 4.8 0 0 1-1.74-0.72 3.276 3.276 0 0 1-1.124-1.3 4.52 4.52 0 0 1-0.4-1.976 3.712 3.712 0 0 1 0.452-1.9c0.288-0.51 0.701-0.938 1.2-1.244a5.408 5.408 0 0 1 1.732-0.668 9.56 9.56 0 0 1 2.02-0.208c0.42-3e-3 0.839 0.017 1.256 0.06 0.3 0.03 0.597 0.083 0.888 0.16v-0.344a2 2 0 0 0-0.56-1.484c-0.372-0.376-1.024-0.56-1.948-0.56-0.612 0-1.223 0.044-1.828 0.132a7.956 7.956 0 0 0-1.56 0.38l-0.464-2.924a9.28 9.28 0 0 1 0.8-0.208c0.324-0.072 0.664-0.136 1.036-0.196s0.768-0.104 1.2-0.148c0.432-0.044 0.824-0.06 1.244-0.06zm0.296 10.624c0.355 0 0.695-8e-3 1.02-0.024 0.268-7e-3 0.535-0.03 0.8-0.072v-2.752a7.782 7.782 0 0 0-1.456-0.148 7.336 7.336 0 0 0-0.964 0.06 2.664 2.664 0 0 0-0.8 0.232 1.348 1.348 0 0 0-0.536 0.464c-0.136 0.22-0.204 0.474-0.196 0.732-0.05 0.471 0.174 0.93 0.576 1.18 0.482 0.24 1.018 0.354 1.556 0.328zm12.396-13.072a1.92 1.92 0 0 1-0.62 1.512 2.228 2.228 0 0 1-2.928 0 1.92 1.92 0 0 1-0.62-1.512 1.916 1.916 0 0 1 0.62-1.516 2.216 2.216 0 0 1 2.928 0c0.423 0.387 0.65 0.943 0.62 1.516zm-0.328 15.876h-3.488v-12.316h3.488z" fill="#ff34ff"/>
 </g>
</svg>
