<svg xmlns="http://www.w3.org/2000/svg" width="117" height="24" viewBox="0 0 117 24">
    <g fill="#FFF" fill-rule="nonzero">
        <g transform="translate(0 .357)">
            <circle cx="1.136" cy="17.047" r="1.136"/>
            <circle cx="4.916" cy="19.315" r="1.136"/>
            <circle cx="12.476" cy="19.315" r="1.136"/>
            <circle cx="16.256" cy="17.047" r="1.136"/>
            <path d="M1.136 13.643a1.152 1.152 0 0 0 1.132-1.16V1.203A1.148 1.148 0 0 0 1.136.043 1.152 1.152 0 0 0 0 1.203v11.292c.002.629.508 1.14 1.136 1.148zM4.916 15.92a1.148 1.148 0 0 0 1.132-1.16V3.466a1.136 1.136 0 1 0-2.268 0V14.76a1.152 1.152 0 0 0 1.136 1.16zM8.696 18.191a1.152 1.152 0 0 0 1.136-1.16V5.74a1.136 1.136 0 1 0-2.272 0v11.292a1.152 1.152 0 0 0 1.136 1.16z"/>
            <circle cx="8.696" cy="21.587" r="1.136"/>
            <path d="M12.476 15.92a1.152 1.152 0 0 0 1.124-1.16V3.466a1.136 1.136 0 1 0-2.268 0V14.76a1.148 1.148 0 0 0 1.144 1.16zM16.256 13.643a1.152 1.152 0 0 0 1.136-1.16V1.203a1.136 1.136 0 1 0-2.268 0v11.292a1.152 1.152 0 0 0 1.132 1.148z"/>
        </g>
        <path d="M24.492 5.824c.81-.22 1.633-.393 2.464-.516a20.168 20.168 0 0 1 3.168-.24 7.68 7.68 0 0 1 2.8.44 4.24 4.24 0 0 1 1.772 1.24c.447.56.764 1.214.928 1.912a9.96 9.96 0 0 1 .28 2.464v7.464h-3.74v-7.012c0-1.205-.16-2.06-.48-2.564-.32-.504-.915-.755-1.784-.752-.268 0-.556 0-.856.036-.3.036-.572.056-.8.088v10.208H24.5l-.008-12.768zM44.268 15.268a5.6 5.6 0 0 0 1.36-.136c.308-.07.6-.197.86-.376.202-.139.36-.333.452-.56.084-.232.126-.477.124-.724a1.676 1.676 0 0 0-.8-1.412c-.86-.52-1.783-.923-2.748-1.2-.568-.2-1.132-.428-1.7-.688a6.304 6.304 0 0 1-1.524-.972A4.732 4.732 0 0 1 39.2 7.768a4.44 4.44 0 0 1-.424-2.036c-.02-.742.125-1.48.424-2.16a4.624 4.624 0 0 1 1.272-1.636 5.856 5.856 0 0 1 2-1.04 8.992 8.992 0 0 1 2.644-.36 10.572 10.572 0 0 1 5.124 1.2L49.132 4.8a10.108 10.108 0 0 0-1.6-.66 6.968 6.968 0 0 0-2.136-.288 3.888 3.888 0 0 0-2 .4c-.41.256-.645.718-.612 1.2-.01.283.068.563.224.8.17.22.378.406.616.548.301.188.62.346.952.472.356.144.752.288 1.2.44.896.332 1.68.66 2.344.984.612.287 1.174.67 1.664 1.136.437.43.775.95.988 1.524.232.683.342 1.402.324 2.124a4.504 4.504 0 0 1-1.696 3.756c-1.133.89-2.84 1.337-5.12 1.34a13.6 13.6 0 0 1-3.708-.472 9.972 9.972 0 0 1-1.224-.424 10.357 10.357 0 0 1-.864-.424l1.1-3.1c.608.32 1.247.576 1.908.764a9.84 9.84 0 0 0 2.776.348zM65.2 17.836c-.81.22-1.633.393-2.464.516a20.12 20.12 0 0 1-3.168.24 7.544 7.544 0 0 1-2.8-.452 4.204 4.204 0 0 1-1.772-1.268 4.932 4.932 0 0 1-.932-1.948 10.476 10.476 0 0 1-.28-2.488V5.072h3.748V12c0 1.203.159 2.073.476 2.612.317.539.912.805 1.784.8.268 0 .556 0 .856-.04.3-.04.568-.052.8-.088V5.068H65.2v12.768zM76.696 8.684a29.24 29.24 0 0 0-1.2-.26 7.352 7.352 0 0 0-1.46-.14 7.148 7.148 0 0 0-.84.064c-.251.026-.5.073-.744.14v10.104h-3.744V6.076a22.4 22.4 0 0 1 2.376-.668 13.732 13.732 0 0 1 3.052-.316c.2 0 .444 0 .728.04s.568.056.856.1c.288.044.568.092.856.148.248.05.492.12.728.212l-.608 3.092zM78.456 11.908a7.964 7.964 0 0 1 .524-3.004 6.46 6.46 0 0 1 1.384-2.144 5.78 5.78 0 0 1 1.972-1.3c.73-.29 1.507-.44 2.292-.44 1.827 0 3.272.559 4.336 1.676 1.064 1.12 1.6 2.764 1.6 4.936 0 .212 0 .444-.024.7-.024.256-.032.476-.048.672h-8.288A2.432 2.432 0 0 0 83.26 14.8a4.236 4.236 0 0 0 2.5.66c.662.001 1.322-.06 1.972-.184.543-.1 1.072-.26 1.58-.476l.492 2.964c-.258.12-.526.22-.8.296-.36.105-.724.19-1.092.256-.4.076-.828.136-1.288.184-.454.051-.91.077-1.368.076a8.188 8.188 0 0 1-3.028-.512 5.928 5.928 0 0 1-2.132-1.408 5.628 5.628 0 0 1-1.252-2.12 8.436 8.436 0 0 1-.388-2.628zm8.576-1.4a3.86 3.86 0 0 0-.16-.908 2.4 2.4 0 0 0-.4-.8 2.316 2.316 0 0 0-.712-.564 2.36 2.36 0 0 0-1.068-.22 2.4 2.4 0 0 0-1.052.212c-.29.133-.547.328-.752.572a2.64 2.64 0 0 0-.452.8 5.44 5.44 0 0 0-.232.92l4.828-.012z"/>
        <circle cx="94.332" cy="16.864" r="1.684"/>
        <path d="M103.496 5.164a8.4 8.4 0 0 1 2.684.368 4.176 4.176 0 0 1 1.716 1.048c.434.468.745 1.037.904 1.656.188.706.282 1.433.28 2.164v7.56c-.52.112-1.244.248-2.172.4a20.588 20.588 0 0 1-3.36.232 10.576 10.576 0 0 1-2.256-.22 4.8 4.8 0 0 1-1.74-.72 3.276 3.276 0 0 1-1.124-1.3 4.52 4.52 0 0 1-.4-1.976 3.712 3.712 0 0 1 .452-1.9c.288-.51.701-.938 1.2-1.244a5.408 5.408 0 0 1 1.732-.668 9.56 9.56 0 0 1 2.02-.208c.42-.003.839.017 1.256.06.3.03.597.083.888.16v-.344a2 2 0 0 0-.56-1.484c-.372-.376-1.024-.56-1.948-.56-.612 0-1.223.044-1.828.132a7.956 7.956 0 0 0-1.56.38l-.464-2.924a9.28 9.28 0 0 1 .8-.208c.324-.072.664-.136 1.036-.196s.768-.104 1.2-.148c.432-.044.824-.06 1.244-.06zm.296 10.624c.355 0 .695-.008 1.02-.024.268-.007.535-.03.8-.072V12.94a7.782 7.782 0 0 0-1.456-.148 7.336 7.336 0 0 0-.964.06 2.664 2.664 0 0 0-.8.232 1.348 1.348 0 0 0-.536.464c-.136.22-.204.474-.196.732-.05.471.174.93.576 1.18.482.24 1.018.354 1.556.328zM116.188 2.716a1.92 1.92 0 0 1-.62 1.512 2.228 2.228 0 0 1-2.928 0 1.92 1.92 0 0 1-.62-1.512 1.916 1.916 0 0 1 .62-1.516 2.216 2.216 0 0 1 2.928 0c.423.387.65.943.62 1.516zm-.328 15.876h-3.488V6.276h3.488v12.316z"/>
    </g>
</svg>
